<svg width="214" height="77" viewBox="0 0 214 77" fill="none" xmlns="http://www.w3.org/2000/svg">
<path d="M0.5 9C0.5 4.02944 4.52944 0 9.5 0H204.5C209.471 0 213.5 4.02944 213.5 9V68C213.5 72.9706 209.471 77 204.5 77H9.49999C4.52943 77 0.5 72.9706 0.5 68V9Z" fill="white"/>
<path d="M50.25 44.125C50.25 45.015 49.9861 45.885 49.4916 46.6251C48.9971 47.3651 48.2943 47.9419 47.4721 48.2825C46.6498 48.6231 45.745 48.7122 44.8721 48.5385C43.9992 48.3649 43.1974 47.9363 42.568 47.307C41.9387 46.6776 41.5101 45.8758 41.3365 45.0029C41.1628 44.13 41.2519 43.2252 41.5925 42.4029C41.9331 41.5807 42.5099 40.8779 43.2499 40.3834C43.99 39.8889 44.86 39.625 45.75 39.625C46.9435 39.625 48.0881 40.0991 48.932 40.943C49.7759 41.7869 50.25 42.9315 50.25 44.125ZM49.125 28.375H30C29.4033 28.375 28.831 28.6121 28.409 29.034C27.9871 29.456 27.75 30.0283 27.75 30.625V46.375C27.75 46.9717 27.9871 47.544 28.409 47.966C28.831 48.3879 29.4033 48.625 30 48.625H40.7325C39.5753 47.3425 38.9547 45.6646 38.999 43.9377C39.0433 42.2109 39.749 40.567 40.9705 39.3455C42.192 38.124 43.8359 37.4183 45.5627 37.374C47.2896 37.3297 48.9675 37.9503 50.25 39.1075V34C50.25 33.7016 50.1315 33.4155 49.9205 33.2045C49.7095 32.9935 49.4234 32.875 49.125 32.875H31.125C30.8266 32.875 30.5405 32.7565 30.3295 32.5455C30.1185 32.3345 30 32.0484 30 31.75C30 31.4516 30.1185 31.1655 30.3295 30.9545C30.5405 30.7435 30.8266 30.625 31.125 30.625H50.25V29.5C50.25 29.2016 50.1315 28.9155 49.9205 28.7045C49.7095 28.4935 49.4234 28.375 49.125 28.375Z" fill="#4FD18B"/>
<path d="M60.865 46.5V31.695H71.491V34.656H64.582V37.491H70.987V40.473H64.582V43.518H71.491V46.5H60.865ZM77.4673 46.731C76.5433 46.731 75.7313 46.514 75.0313 46.08C74.3313 45.632 73.7783 44.988 73.3723 44.148C72.9803 43.308 72.7843 42.314 72.7843 41.166C72.7843 40.004 72.9803 39.01 73.3723 38.184C73.7783 37.344 74.3313 36.707 75.0313 36.273C75.7313 35.825 76.5433 35.601 77.4673 35.601C78.2933 35.601 79.0353 35.797 79.6933 36.189C80.3653 36.581 80.8063 37.092 81.0163 37.722H80.8063L81.0373 35.832H84.6283C84.5863 36.308 84.5443 36.791 84.5023 37.281C84.4743 37.771 84.4603 38.254 84.4603 38.73V46.5H80.7643L80.7223 44.694H80.9743C80.7643 45.31 80.3233 45.807 79.6513 46.185C78.9933 46.549 78.2653 46.731 77.4673 46.731ZM78.6643 43.959C79.2943 43.959 79.8053 43.742 80.1973 43.308C80.5893 42.86 80.7853 42.146 80.7853 41.166C80.7853 40.186 80.5893 39.479 80.1973 39.045C79.8053 38.597 79.2943 38.373 78.6643 38.373C78.0343 38.373 77.5233 38.597 77.1313 39.045C76.7393 39.479 76.5433 40.186 76.5433 41.166C76.5433 42.146 76.7323 42.86 77.1103 43.308C77.5023 43.742 78.0203 43.959 78.6643 43.959ZM90.877 46.731C89.883 46.731 88.98 46.633 88.168 46.437C87.37 46.227 86.691 45.947 86.131 45.597L87.034 43.161C87.58 43.469 88.189 43.721 88.861 43.917C89.547 44.113 90.226 44.211 90.898 44.211C91.43 44.211 91.815 44.134 92.053 43.98C92.305 43.812 92.431 43.595 92.431 43.329C92.431 43.119 92.354 42.951 92.2 42.825C92.046 42.699 91.815 42.608 91.507 42.552L89.239 42.153C88.343 41.985 87.643 41.656 87.139 41.166C86.649 40.662 86.404 40.011 86.404 39.213C86.404 38.485 86.6 37.855 86.992 37.323C87.384 36.777 87.944 36.357 88.672 36.063C89.4 35.755 90.261 35.601 91.255 35.601C92.067 35.601 92.837 35.692 93.565 35.874C94.307 36.056 94.951 36.343 95.497 36.735L94.531 39.108C94.097 38.814 93.586 38.576 92.998 38.394C92.424 38.198 91.885 38.1 91.381 38.1C90.779 38.1 90.352 38.191 90.1 38.373C89.848 38.541 89.722 38.751 89.722 39.003C89.722 39.199 89.792 39.367 89.932 39.507C90.072 39.633 90.296 39.724 90.604 39.78L92.872 40.179C93.796 40.333 94.503 40.655 94.993 41.145C95.497 41.621 95.749 42.272 95.749 43.098C95.749 43.868 95.539 44.526 95.119 45.072C94.713 45.604 94.146 46.017 93.418 46.311C92.69 46.591 91.843 46.731 90.877 46.731ZM97.2419 51.267L96.3599 48.369C97.0319 48.243 97.5919 48.103 98.0399 47.949C98.5019 47.809 98.8799 47.613 99.1739 47.361C99.4679 47.109 99.6989 46.78 99.8669 46.374L100.392 45.156L100.308 46.563L95.6459 35.832H99.5939L102.324 42.909H101.631L104.445 35.832H108.141L103.353 46.731C102.975 47.585 102.569 48.285 102.135 48.831C101.715 49.377 101.253 49.811 100.749 50.133C100.259 50.455 99.7199 50.693 99.1319 50.847C98.5579 51.015 97.9279 51.155 97.2419 51.267Z" fill="#4C49ED"/>
<path d="M109.12 46.5V31.695H119.515V34.656H113.005V37.659H119.032V40.62H113.005V46.5H109.12ZM121.153 46.5V35.832H124.891V46.5H121.153ZM121.069 34.32V30.96H124.996V34.32H121.069ZM127.203 46.5V38.73C127.203 38.254 127.189 37.771 127.161 37.281C127.133 36.791 127.091 36.308 127.035 35.832H130.647L130.857 37.68H130.626C130.976 37.008 131.473 36.497 132.117 36.147C132.761 35.783 133.489 35.601 134.301 35.601C135.547 35.601 136.478 35.972 137.094 36.714C137.724 37.442 138.039 38.583 138.039 40.137V46.5H134.301V40.305C134.301 39.619 134.182 39.143 133.944 38.877C133.706 38.597 133.363 38.457 132.915 38.457C132.327 38.457 131.851 38.653 131.487 39.045C131.123 39.423 130.941 39.927 130.941 40.557V46.5H127.203ZM144.487 46.731C143.563 46.731 142.751 46.514 142.051 46.08C141.351 45.632 140.798 44.988 140.392 44.148C140 43.308 139.804 42.314 139.804 41.166C139.804 40.004 140 39.01 140.392 38.184C140.798 37.344 141.351 36.707 142.051 36.273C142.751 35.825 143.563 35.601 144.487 35.601C145.313 35.601 146.055 35.797 146.713 36.189C147.385 36.581 147.826 37.092 148.036 37.722H147.826L148.057 35.832H151.648C151.606 36.308 151.564 36.791 151.522 37.281C151.494 37.771 151.48 38.254 151.48 38.73V46.5H147.784L147.742 44.694H147.994C147.784 45.31 147.343 45.807 146.671 46.185C146.013 46.549 145.285 46.731 144.487 46.731ZM145.684 43.959C146.314 43.959 146.825 43.742 147.217 43.308C147.609 42.86 147.805 42.146 147.805 41.166C147.805 40.186 147.609 39.479 147.217 39.045C146.825 38.597 146.314 38.373 145.684 38.373C145.054 38.373 144.543 38.597 144.151 39.045C143.759 39.479 143.563 40.186 143.563 41.166C143.563 42.146 143.752 42.86 144.13 43.308C144.522 43.742 145.04 43.959 145.684 43.959ZM153.801 46.5V38.73C153.801 38.254 153.787 37.771 153.759 37.281C153.731 36.791 153.689 36.308 153.633 35.832H157.245L157.455 37.68H157.224C157.574 37.008 158.071 36.497 158.715 36.147C159.359 35.783 160.087 35.601 160.899 35.601C162.145 35.601 163.076 35.972 163.692 36.714C164.322 37.442 164.637 38.583 164.637 40.137V46.5H160.899V40.305C160.899 39.619 160.78 39.143 160.542 38.877C160.304 38.597 159.961 38.457 159.513 38.457C158.925 38.457 158.449 38.653 158.085 39.045C157.721 39.423 157.539 39.927 157.539 40.557V46.5H153.801ZM172.282 46.731C171.106 46.731 170.077 46.507 169.195 46.059C168.313 45.611 167.627 44.974 167.137 44.148C166.647 43.308 166.402 42.307 166.402 41.145C166.402 39.983 166.647 38.989 167.137 38.163C167.627 37.337 168.313 36.707 169.195 36.273C170.077 35.825 171.106 35.601 172.282 35.601C173.01 35.601 173.724 35.699 174.424 35.895C175.124 36.091 175.691 36.371 176.125 36.735L175.075 39.276C174.739 38.996 174.354 38.786 173.92 38.646C173.5 38.492 173.087 38.415 172.681 38.415C171.911 38.415 171.309 38.646 170.875 39.108C170.455 39.57 170.245 40.249 170.245 41.145C170.245 42.041 170.455 42.727 170.875 43.203C171.309 43.665 171.911 43.896 172.681 43.896C173.073 43.896 173.486 43.826 173.92 43.686C174.354 43.532 174.739 43.322 175.075 43.056L176.125 45.597C175.677 45.947 175.103 46.227 174.403 46.437C173.717 46.633 173.01 46.731 172.282 46.731ZM183.096 46.731C181.164 46.731 179.659 46.234 178.581 45.24C177.517 44.246 176.985 42.881 176.985 41.145C176.985 40.067 177.209 39.108 177.657 38.268C178.105 37.428 178.735 36.777 179.547 36.315C180.359 35.839 181.311 35.601 182.403 35.601C183.481 35.601 184.377 35.839 185.091 36.315C185.819 36.777 186.365 37.421 186.729 38.247C187.093 39.059 187.275 40.004 187.275 41.082V41.88H180.114V40.116H184.524L184.167 40.41C184.167 39.612 184.013 39.024 183.705 38.646C183.411 38.254 182.991 38.058 182.445 38.058C181.815 38.058 181.332 38.296 180.996 38.772C180.674 39.234 180.513 39.934 180.513 40.872V41.25C180.513 42.188 180.744 42.874 181.206 43.308C181.668 43.742 182.333 43.959 183.201 43.959C183.761 43.959 184.286 43.896 184.776 43.77C185.28 43.644 185.756 43.441 186.204 43.161L187.17 45.597C186.638 45.961 186.022 46.241 185.322 46.437C184.622 46.633 183.88 46.731 183.096 46.731Z" fill="#4FD18B"/>
</svg>
