<svg width="55" height="80" viewBox="0 0 75 80" fill="none" xmlns="http://www.w3.org/2000/svg">
<path d="M0.5 9C0.5 4.02944 4.52944 0 9.5 0H204.5C209.471 0 213.5 4.02944 213.5 9V68C213.5 72.9706 209.471 77 204.5 77H9.49999C4.52943 77 0.5 72.9706 0.5 68V9Z" fill="transparent"/>
<path d="M50.25 44.125C50.25 45.015 49.9861 45.885 49.4916 46.6251C48.9971 47.3651 48.2943 47.9419 47.4721 48.2825C46.6498 48.6231 45.745 48.7122 44.8721 48.5385C43.9992 48.3649 43.1974 47.9363 42.568 47.307C41.9387 46.6776 41.5101 45.8758 41.3365 45.0029C41.1628 44.13 41.2519 43.2252 41.5925 42.4029C41.9331 41.5807 42.5099 40.8779 43.2499 40.3834C43.99 39.8889 44.86 39.625 45.75 39.625C46.9435 39.625 48.0881 40.0991 48.932 40.943C49.7759 41.7869 50.25 42.9315 50.25 44.125ZM49.125 28.375H30C29.4033 28.375 28.831 28.6121 28.409 29.034C27.9871 29.456 27.75 30.0283 27.75 30.625V46.375C27.75 46.9717 27.9871 47.544 28.409 47.966C28.831 48.3879 29.4033 48.625 30 48.625H40.7325C39.5753 47.3425 38.9547 45.6646 38.999 43.9377C39.0433 42.2109 39.749 40.567 40.9705 39.3455C42.192 38.124 43.8359 37.4183 45.5627 37.374C47.2896 37.3297 48.9675 37.9503 50.25 39.1075V34C50.25 33.7016 50.1315 33.4155 49.9205 33.2045C49.7095 32.9935 49.4234 32.875 49.125 32.875H31.125C30.8266 32.875 30.5405 32.7565 30.3295 32.5455C30.1185 32.3345 30 32.0484 30 31.75C30 31.4516 30.1185 31.1655 30.3295 30.9545C30.5405 30.7435 30.8266 30.625 31.125 30.625H50.25V29.5C50.25 29.2016 50.1315 28.9155 49.9205 28.7045C49.7095 28.4935 49.4234 28.375 49.125 28.375Z" fill="#4FD18B"/>
</svg>
